<?xml version="1.0" standalone="no"?>
<!DOCTYPE svg PUBLIC "-//W3C//DTD SVG 20010904//EN"
 "http://www.w3.org/TR/2001/REC-SVG-20010904/DTD/svg10.dtd">
<svg version="1.0" xmlns="http://www.w3.org/2000/svg"
 width="512.000000pt" height="512.000000pt" viewBox="0 0 512.000000 512.000000"
 preserveAspectRatio="xMidYMid meet">

<g transform="translate(0.000000,512.000000) scale(0.100000,-0.100000)"
fill="#000000" stroke="none">
<path d="M1063 4057 c-88 -88 -93 -95 -93 -136 0 -37 6 -49 50 -94 l49 -52
138 138 138 138 -52 49 c-45 44 -57 50 -94 50 -41 0 -48 -5 -136 -93z"/>
<path d="M3827 4100 l-52 -49 138 -138 138 -138 49 52 c44 45 50 57 50 94 0
41 -5 48 -93 136 -88 88 -95 93 -136 93 -37 0 -49 -6 -94 -50z"/>
<path d="M2245 3539 c-165 -66 -562 -224 -883 -352 l-582 -232 372 -147 c205
-81 378 -148 384 -148 7 0 244 70 528 156 284 85 521 152 526 149 6 -3 10 -14
10 -24 0 -17 -169 -72 -863 -278 -83 -24 -121 -40 -110 -44 10 -4 224 -88 475
-188 l458 -182 872 347 c480 190 881 349 891 353 12 5 -116 60 -395 171 -909
361 -1363 540 -1373 539 -5 0 -145 -55 -310 -120z"/>
<path d="M3430 2549 c-173 -70 -440 -179 -592 -240 l-278 -112 -102 41 c-57
22 -285 114 -508 205 l-406 164 -47 -14 -47 -14 0 -97 c0 -53 3 -148 7 -211 6
-113 7 -115 48 -175 83 -122 261 -254 445 -330 79 -32 263 -83 371 -102 123
-22 410 -25 529 -6 247 41 478 124 640 231 98 65 235 196 273 261 l26 45 -10
220 c-11 229 -14 266 -27 264 -4 0 -149 -59 -322 -130z"/>
<path d="M1050 1105 c-46 -69 -80 -128 -77 -131 6 -6 257 154 257 164 0 8 -82
92 -91 92 -3 0 -44 -56 -89 -125z"/>
<path d="M3932 1187 c-23 -23 -42 -46 -42 -49 0 -10 251 -170 257 -164 7 6
-156 256 -166 256 -4 0 -26 -19 -49 -43z"/>
</g>
</svg>
